<svg xmlns="http://www.w3.org/2000/svg" viewBox="0 0 100 100" fill="none" stroke="black" stroke-width="4" stroke-linecap="round" stroke-linejoin="round">
  <!-- Hanger Hook -->
  <path d="M 50 35 C 50 35, 50 28, 55 25 C 60 22, 65 28, 60 32 C 55 36, 55 40, 55 40" />
  
  <!-- Left Sleeve -->
  <path d="M 40 40 C 25 40, 15 50, 15 60 C 20 65, 25 60, 30 55" />
  
  <!-- Right Sleeve -->
  <path d="M 60 40 C 75 40, 85 50, 85 60 C 80 65, 75 60, 70 55" />
  
  <!-- Shirt Body -->
  <path d="M 30 55 L 30 90 L 70 90 L 70 55" />
  
  <!-- Collar / Neckline -->
  <path d="M 40 40 C 40 45, 60 45, 60 40" />
</svg>